<mxfile host="app.diagrams.net" modified="2023-10-30T17:27:15.122Z" agent="Mozilla/5.0 (Windows NT 10.0; Win64; x64) AppleWebKit/537.36 (KHTML, like Gecko) Chrome/118.0.0.0 Safari/537.36 Edg/118.0.2088.76" etag="525lOMJnpoV3XcD86v_t" version="22.0.8" type="device">
  <diagram name="Page-1" id="9bMd2IUj0xT-wc3iH1y6">
    <mxGraphModel dx="746" dy="502" grid="0" gridSize="10" guides="1" tooltips="1" connect="1" arrows="1" fold="1" page="1" pageScale="1" pageWidth="850" pageHeight="1100" math="0" shadow="0">
      <root>
        <mxCell id="0" />
        <mxCell id="1" parent="0" />
        <mxCell id="3Zi9IdDQdelrNBpgqfDV-1" value="Regular User" style="shape=umlActor;verticalLabelPosition=bottom;verticalAlign=top;html=1;outlineConnect=0;" vertex="1" parent="1">
          <mxGeometry x="495" y="290" width="30" height="60" as="geometry" />
        </mxCell>
        <mxCell id="3Zi9IdDQdelrNBpgqfDV-14" style="edgeStyle=orthogonalEdgeStyle;rounded=0;orthogonalLoop=1;jettySize=auto;html=1;exitX=0.5;exitY=0.5;exitDx=0;exitDy=0;exitPerimeter=0;entryX=1;entryY=0.5;entryDx=0;entryDy=0;" edge="1" parent="1" source="3Zi9IdDQdelrNBpgqfDV-2" target="3Zi9IdDQdelrNBpgqfDV-13">
          <mxGeometry relative="1" as="geometry" />
        </mxCell>
        <mxCell id="3Zi9IdDQdelrNBpgqfDV-2" value="Admin" style="shape=umlActor;verticalLabelPosition=bottom;verticalAlign=top;html=1;outlineConnect=0;" vertex="1" parent="1">
          <mxGeometry x="370" y="290" width="30" height="60" as="geometry" />
        </mxCell>
        <mxCell id="3Zi9IdDQdelrNBpgqfDV-3" value="Login" style="ellipse;whiteSpace=wrap;html=1;" vertex="1" parent="1">
          <mxGeometry x="320" y="60" width="100" height="50" as="geometry" />
        </mxCell>
        <mxCell id="3Zi9IdDQdelrNBpgqfDV-4" value="Read sensor readings" style="ellipse;whiteSpace=wrap;html=1;" vertex="1" parent="1">
          <mxGeometry x="460" y="60" width="100" height="50" as="geometry" />
        </mxCell>
        <mxCell id="3Zi9IdDQdelrNBpgqfDV-8" style="edgeStyle=orthogonalEdgeStyle;rounded=0;orthogonalLoop=1;jettySize=auto;html=1;entryX=0.5;entryY=1;entryDx=0;entryDy=0;" edge="1" parent="1" target="3Zi9IdDQdelrNBpgqfDV-3">
          <mxGeometry relative="1" as="geometry">
            <mxPoint x="430" y="160" as="sourcePoint" />
          </mxGeometry>
        </mxCell>
        <mxCell id="3Zi9IdDQdelrNBpgqfDV-9" style="edgeStyle=orthogonalEdgeStyle;rounded=0;orthogonalLoop=1;jettySize=auto;html=1;entryX=0.5;entryY=1;entryDx=0;entryDy=0;" edge="1" parent="1" target="3Zi9IdDQdelrNBpgqfDV-4">
          <mxGeometry relative="1" as="geometry">
            <mxPoint x="450" y="160" as="sourcePoint" />
          </mxGeometry>
        </mxCell>
        <mxCell id="3Zi9IdDQdelrNBpgqfDV-5" value="All Users" style="shape=umlActor;verticalLabelPosition=bottom;verticalAlign=top;html=1;" vertex="1" parent="1">
          <mxGeometry x="425" y="160" width="30" height="60" as="geometry" />
        </mxCell>
        <mxCell id="3Zi9IdDQdelrNBpgqfDV-10" style="edgeStyle=orthogonalEdgeStyle;rounded=0;orthogonalLoop=1;jettySize=auto;html=1;exitX=0.5;exitY=0;exitDx=0;exitDy=0;exitPerimeter=0;endArrow=block;endFill=0;" edge="1" parent="1" source="3Zi9IdDQdelrNBpgqfDV-1">
          <mxGeometry relative="1" as="geometry">
            <mxPoint x="450" y="190" as="targetPoint" />
            <Array as="points">
              <mxPoint x="510" y="190" />
            </Array>
          </mxGeometry>
        </mxCell>
        <mxCell id="3Zi9IdDQdelrNBpgqfDV-11" style="edgeStyle=orthogonalEdgeStyle;rounded=0;orthogonalLoop=1;jettySize=auto;html=1;endArrow=block;endFill=0;" edge="1" parent="1" source="3Zi9IdDQdelrNBpgqfDV-2">
          <mxGeometry relative="1" as="geometry">
            <mxPoint x="430" y="190" as="targetPoint" />
            <Array as="points">
              <mxPoint x="385" y="190" />
            </Array>
          </mxGeometry>
        </mxCell>
        <mxCell id="3Zi9IdDQdelrNBpgqfDV-13" value="Connect device&amp;nbsp;" style="ellipse;whiteSpace=wrap;html=1;" vertex="1" parent="1">
          <mxGeometry x="210" y="295" width="100" height="50" as="geometry" />
        </mxCell>
        <mxCell id="3Zi9IdDQdelrNBpgqfDV-17" style="edgeStyle=orthogonalEdgeStyle;rounded=0;orthogonalLoop=1;jettySize=auto;html=1;entryX=0.5;entryY=1;entryDx=0;entryDy=0;" edge="1" parent="1" source="3Zi9IdDQdelrNBpgqfDV-15" target="3Zi9IdDQdelrNBpgqfDV-16">
          <mxGeometry relative="1" as="geometry" />
        </mxCell>
        <mxCell id="3Zi9IdDQdelrNBpgqfDV-15" value="System" style="shape=umlActor;verticalLabelPosition=bottom;verticalAlign=top;html=1;" vertex="1" parent="1">
          <mxGeometry x="620" y="295" width="30" height="60" as="geometry" />
        </mxCell>
        <mxCell id="3Zi9IdDQdelrNBpgqfDV-16" value="Simulates power readings" style="ellipse;whiteSpace=wrap;html=1;" vertex="1" parent="1">
          <mxGeometry x="585" y="180" width="100" height="50" as="geometry" />
        </mxCell>
      </root>
    </mxGraphModel>
  </diagram>
</mxfile>
